# xmcd
#
# Track frame offsets:
#	150
#	10629
#	20375
#	31087
#	38211
#	52251
#	62712
#	73528
#	84032
#	93486
#
# Disc length: 1364 seconds
# Revision: 0
# Processed by: cddbd v1.5.2PL0 Copyright (c) Steve Scherf et al.
# Submitted via: dBpowerAMP V12.0
#
DISCID=7105520a
DTITLE=Tom T Hall - Saturday Morning Songs
DYEAR=1979
DGENRE=Country
TTITLE0=The Saturday Morning Song
TTITLE1=That's Why You Have To Be You
TTITLE2=Pisty
TTITLE3=The Rattle Mouse
TTITLE4=There Is A Miracle In You
TTITLE5=Easter Is
TTITLE6=Halloween Is
TTITLE7=Thanksgiving Is
TTITLE8=Christmas Is
TTITLE9=Your Birthday Is
EXTD=
EXTT0=
EXTT1=
EXTT2=
EXTT3=
EXTT4=
EXTT5=
EXTT6=
EXTT7=
EXTT8=
EXTT9=
PLAYORDER=
